# xmcd CD database file
#
# Track frame offsets:
#	150
#	21790
#	40729
#	51005
#	73090
#	78850
#	106780
#	135872
#	156721
#	160896
#	186812
#	209287
#	244084
#
# Disc length: 3939 seconds
#
# Revision: 2
# Processed by: cddbd v1.5.2PL0 Copyright (c) Steve Scherf et al.
# Submitted via: CDex 1.51
#
DISCID=a50f610d
DTITLE=Lester Quitzau - So Here We Are
DYEAR=2001
DGENRE=Blues
TTITLE0=Rollin' And Tumblin'
TTITLE1=Waiting
TTITLE2=Honey Bee
TTITLE3=So Here We Are
TTITLE4=Every Minute of Every Day
TTITLE5=Release Me
TTITLE6=Broken Heart
TTITLE7=Devil's Dues
TTITLE8=Every Minute of Every Day -pt2
TTITLE9=Home On The Range
TTITLE10=Time Takes Time
TTITLE11=Heart And Soul
TTITLE12=Bonus Track
EXTD=YEAR: 2001
EXTT0=
EXTT1=
EXTT2=
EXTT3=
EXTT4=
EXTT5=
EXTT6=
EXTT7=
EXTT8=
EXTT9=
EXTT10=
EXTT11=
EXTT12=
PLAYORDER=
